<svg width="40" height="40" viewBox="0 0 40 40" fill="none" xmlns="http://www.w3.org/2000/svg">
<circle cx="20" cy="20" r="20" fill="#202020"/>
<g clip-path="url(#clip0_2_77)">
<path d="M13.0348 17.404C13.136 16.7748 13.3032 16.1632 13.5364 15.5692C13.7696 14.9752 14.0644 14.4164 14.4252 13.8884L14.5 13.774L14.456 13.6464C14.3504 13.3296 14.2492 13.0084 14.1656 12.6872C13.884 11.64 13.8664 11.1252 13.8488 10.672C13.8312 10.254 13.818 9.88881 13.6024 9.27721L13.5936 9.24641C13.5716 9.18921 13.532 9.07041 13.5188 8.99561C13.7036 9.00881 14.016 9.15401 14.17 9.22441C14.9576 9.58521 15.4196 10.1484 15.6264 10.4476C15.7056 10.5664 15.7804 10.6896 15.842 10.8128L15.9828 11.0856L16.238 10.914C16.5064 10.7292 16.9508 10.5092 17.536 10.4916C17.5624 10.4916 17.5844 10.4916 17.6108 10.4916C18.2356 10.4916 18.7064 10.738 18.9352 10.8832L19.0584 10.9624L19.1948 10.9008C19.516 10.76 19.8328 10.5972 20.1364 10.4168C20.5016 10.2012 20.77 10.012 21.0032 9.84481C21.3596 9.58961 21.6192 9.40481 22.0328 9.26841C22.178 9.22001 22.332 9.18041 22.4816 9.15841C22.4112 9.36521 22.3276 9.56761 22.2352 9.76561C22.0196 10.2276 21.8348 10.4696 21.6676 10.6852C21.474 10.936 21.2936 11.1736 21.1572 11.6444C21.1176 11.7764 21.0912 11.8952 21.0648 12.0184C21.012 12.2648 20.9548 12.5156 20.7964 12.9028C20.726 13.0744 20.6908 13.1404 20.6644 13.1888C20.6336 13.2416 20.6072 13.2944 20.572 13.4C20.4048 13.9324 20.5412 14.3548 20.6512 14.6936C20.7392 14.962 20.8052 15.1732 20.748 15.4064C20.6116 15.9344 19.8548 16.2248 19.824 16.238C19.6524 16.304 19.472 16.3348 19.2828 16.3348C18.812 16.3348 18.3148 16.1368 17.8308 15.9432C17.1268 15.6616 16.7352 15.38 16.4184 15.1512C16.1016 14.9224 15.8508 14.742 15.49 14.742C15.4284 14.742 15.3668 14.7464 15.3096 14.7552C14.6452 14.8608 14.2404 15.4988 13.4264 16.7616C13.29 16.9728 13.1624 17.1884 13.0348 17.404Z" fill="white"/>
<path d="M16.1148 25.698C15.9476 24.5012 15.556 23.476 14.94 22.6532C14.7684 22.4244 14.5836 22.2088 14.4032 22.0064C13.9852 21.5268 13.5496 21.034 13.2284 20.2288C13.0788 19.8592 12.9732 19.4808 12.9116 19.0848C13.3956 18.4204 13.8488 17.7384 14.2668 17.0564C14.3592 16.9024 14.4472 16.7572 14.5264 16.6252C14.9532 15.908 15.138 15.6132 15.4108 15.578C15.4284 15.5736 15.446 15.5736 15.4636 15.5736C15.5736 15.5736 15.6792 15.644 15.9168 15.8244C16.062 15.93 16.2468 16.0664 16.4932 16.2204C17.1576 16.6384 18.1872 17.1356 19.3136 17.1356C19.5292 17.1356 19.7404 17.118 19.9516 17.0784C20.0352 17.0652 20.1188 17.0432 20.2024 17.0212C20.0792 17.338 19.934 17.646 19.7668 17.9452C18.8648 19.5336 17.5052 20.4356 16.524 20.9152L16.3348 21.0076L16.3744 21.2144C16.5724 22.222 16.6296 23.2472 16.546 24.2592C16.5108 24.7168 16.4448 25.17 16.348 25.6188L16.1148 25.698Z" fill="white"/>
<mask id="mask0_2_77" style="mask-type:luminance" maskUnits="userSpaceOnUse" x="17" y="17" width="14" height="13">
<path d="M30.78 17.2148H17.1532V29.944H30.78V17.2148Z" fill="white"/>
</mask>
<g mask="url(#mask0_2_77)">
<path d="M30.2609 29.922C29.6449 29.0552 28.9541 28.2588 28.1885 27.524C26.7365 26.1336 25.0909 24.5584 22.6709 24.2812C22.4157 24.2504 22.1561 24.2372 21.9009 24.2372C20.8713 24.2372 19.9737 24.4572 19.3137 24.6156C18.5921 24.7916 17.8881 25.0292 17.2061 25.3328C17.2897 25.0116 17.3513 24.6816 17.3953 24.3516C17.5229 23.3792 17.4833 22.3892 17.2721 21.4168C17.8705 21.0692 18.4249 20.6644 18.9397 20.2024C19.5425 19.6568 20.2949 18.9792 20.7481 17.8484C20.8273 17.6504 20.8933 17.4436 20.9505 17.2368C21.2981 17.602 21.6853 17.9232 22.1077 18.2004C23.1197 18.8648 23.9689 19.0232 24.7213 19.164C25.0293 19.2212 25.3197 19.274 25.6057 19.3576C29.4249 20.4708 30.7801 26.2568 30.7801 27.634C30.7801 28.338 30.6129 28.976 30.6129 28.9848C30.5249 29.3104 30.4105 29.6228 30.2609 29.922Z" fill="white"/>
</g>
<mask id="mask1_2_77" style="mask-type:luminance" maskUnits="userSpaceOnUse" x="9" y="25" width="21" height="6">
<path d="M29.3588 25.016H9.21997V31H29.3588V25.016Z" fill="white"/>
</mask>
<g mask="url(#mask1_2_77)">
<path d="M16.4932 30.9999C13.7168 30.9999 11.5696 30.2607 10.1088 28.8043C9.76997 28.4655 9.47517 28.0959 9.21997 27.6911C10.8612 27.6295 12.4892 27.4315 14.0952 27.1015C16.1324 26.6835 17.4744 26.1907 18.5568 25.7903C19.6524 25.3855 20.4488 25.0907 21.4476 25.0599C21.5092 25.0599 21.5708 25.0555 21.6324 25.0555C24.0656 25.0555 26.6484 26.7011 29.3192 29.9483C28.0696 29.5963 26.798 29.4159 25.5352 29.4027H25.4296C23.5904 29.4027 22.5212 29.7723 21.3904 30.1595C20.3564 30.5159 19.2916 30.8811 17.5272 30.9647C17.272 30.9823 16.9156 30.9999 16.4932 30.9999Z" fill="white"/>
</g>
</g>
<defs>
<clipPath id="clip0_2_77">
<rect width="22" height="22" fill="white" transform="translate(9 9)"/>
</clipPath>
</defs>
</svg>
