<svg width="16" height="16" viewBox="0 0 16 16" fill="none" xmlns="http://www.w3.org/2000/svg">
<path d="M2.66671 4.66666H1.33337V14C1.33337 14.7333 1.93337 15.3333 2.66671 15.3333H12V14H2.66671M13.3334 1.99999H11.2C10.9334 1.19999 10.2 0.666656 9.33337 0.666656C8.46671 0.666656 7.73337 1.19999 7.46671 1.99999H5.33337C4.60004 1.99999 4.00004 2.59999 4.00004 3.33332V11.3333C4.00004 12.0667 4.60004 12.6667 5.33337 12.6667H13.3334C14.0667 12.6667 14.6667 12.0667 14.6667 11.3333V3.33332C14.6667 2.59999 14.0667 1.99999 13.3334 1.99999ZM9.33337 1.99999C9.73337 1.99999 10 2.33332 10 2.66666C10 2.99999 9.66671 3.33332 9.33337 3.33332C9.00004 3.33332 8.66671 2.99999 8.66671 2.66666C8.66671 2.33332 8.93337 1.99999 9.33337 1.99999Z" fill="white"/>
</svg>
