<svg width="32" height="32" viewBox="0 0 32 32" fill="none" xmlns="http://www.w3.org/2000/svg">
<path d="M16 2.66666C14.249 2.66666 12.5152 3.01153 10.8975 3.6816C9.27984 4.35166 7.80998 5.33379 6.57187 6.5719C4.07138 9.07238 2.66663 12.4638 2.66663 16C2.66663 21.8933 6.49329 26.8933 11.7866 28.6667C12.4533 28.7733 12.6666 28.36 12.6666 28V25.7467C8.97329 26.5467 8.18663 23.96 8.18663 23.96C7.57329 22.4133 6.70663 22 6.70663 22C5.49329 21.1733 6.79996 21.2 6.79996 21.2C8.13329 21.2933 8.83996 22.5733 8.83996 22.5733C9.99996 24.6 11.96 24 12.72 23.68C12.84 22.8133 13.1866 22.2267 13.56 21.8933C10.6 21.56 7.49329 20.4133 7.49329 15.3333C7.49329 13.8533 7.99996 12.6667 8.86663 11.72C8.73329 11.3867 8.26663 9.99999 8.99996 8.19999C8.99996 8.19999 10.12 7.83999 12.6666 9.55999C13.72 9.26666 14.8666 9.11999 16 9.11999C17.1333 9.11999 18.28 9.26666 19.3333 9.55999C21.88 7.83999 23 8.19999 23 8.19999C23.7333 9.99999 23.2666 11.3867 23.1333 11.72C24 12.6667 24.5066 13.8533 24.5066 15.3333C24.5066 20.4267 21.3866 21.5467 18.4133 21.88C18.8933 22.2933 19.3333 23.1067 19.3333 24.3467V28C19.3333 28.36 19.5466 28.7867 20.2266 28.6667C25.52 26.88 29.3333 21.8933 29.3333 16C29.3333 14.249 28.9884 12.5152 28.3184 10.8975C27.6483 9.27987 26.6662 7.81001 25.428 6.5719C24.1899 5.33379 22.7201 4.35166 21.1024 3.6816C19.4847 3.01153 17.7509 2.66666 16 2.66666Z" fill="black"/>
</svg>
