<?xml version="1.0" encoding="utf-8"?>
<!-- Generator: Adobe Illustrator 27.2.0, SVG Export Plug-In . SVG Version: 6.00 Build 0)  -->
<svg version="1.1" id="Layer_1" xmlns="http://www.w3.org/2000/svg" xmlns:xlink="http://www.w3.org/1999/xlink" x="0px" y="0px"
	 viewBox="0 0 500 500" style="enable-background:new 0 0 500 500;" xml:space="preserve">
<style type="text/css">
	.st0{fill:#FFFFFF;}
	.st1{fill:none;}
	.st2{clip-path:url(#SVGID_00000081643397299520145640000009352521381096146341_);}
	.st3{clip-path:url(#SVGID_00000044859363293583772160000004177135180897478056_);}
</style>
<path class="st0" d="M91.7,191c2.3-14.3,6.1-28.2,11.4-41.7s12-26.2,20.2-38.2l1.7-2.6l-1-2.9c-2.4-7.2-4.7-14.5-6.6-21.8
	C111,60,110.6,48.3,110.2,38c-0.4-9.5-0.7-17.8-5.6-31.7l-0.2-0.7c-0.5-1.3-1.4-4-1.7-5.7c4.2,0.3,11.3,3.6,14.8,5.2
	c17.9,8.2,28.4,21,33.1,27.8c1.8,2.7,3.5,5.5,4.9,8.3l3.2,6.2l5.8-3.9c6.1-4.2,16.2-9.2,29.5-9.6c0.6,0,1.1,0,1.7,0
	c14.2,0,24.9,5.6,30.1,8.9l2.8,1.8l3.1-1.4c7.3-3.2,14.5-6.9,21.4-11c8.3-4.9,14.4-9.2,19.7-13c8.1-5.8,14-10,23.4-13.1
	c3.3-1.1,6.8-2,10.2-2.5c-1.6,4.7-3.5,9.3-5.6,13.8c-4.9,10.5-9.1,16-12.9,20.9c-4.4,5.7-8.5,11.1-11.6,21.8c-0.9,3-1.5,5.7-2.1,8.5
	c-1.2,5.6-2.5,11.3-6.1,20.1c-1.6,3.9-2.4,5.4-3,6.5c-0.7,1.2-1.3,2.4-2.1,4.8c-3.8,12.1-0.7,21.7,1.8,29.4c2,6.1,3.5,10.9,2.2,16.2
	c-3.1,12-20.3,18.6-21,18.9c-3.9,1.5-8,2.2-12.3,2.2c-10.7,0-22-4.5-33-8.9c-16-6.4-24.9-12.8-32.1-18s-12.9-9.3-21.1-9.3
	c-1.4,0-2.8,0.1-4.1,0.3c-15.1,2.4-24.3,16.9-42.8,45.6C97.5,181.2,94.6,186.1,91.7,191z"/>
<path class="st0" d="M161.7,379.5c-3.8-27.2-12.7-50.5-26.7-69.2c-3.9-5.2-8.1-10.1-12.2-14.7c-9.5-10.9-19.4-22.1-26.7-40.4
	c-3.4-8.4-5.8-17-7.2-26c11-15.1,21.3-30.6,30.8-46.1c2.1-3.5,4.1-6.8,5.9-9.8c9.7-16.3,13.9-23,20.1-23.8c0.4-0.1,0.8-0.1,1.2-0.1
	c2.5,0,4.9,1.6,10.3,5.7c3.3,2.4,7.5,5.5,13.1,9c15.1,9.5,38.5,20.8,64.1,20.8c4.9,0,9.7-0.4,14.5-1.3c1.9-0.3,3.8-0.8,5.7-1.3
	c-2.8,7.2-6.1,14.2-9.9,21c-20.5,36.1-51.4,56.6-73.7,67.5l-4.3,2.1l0.9,4.7c4.5,22.9,5.8,46.2,3.9,69.2
	c-0.8,10.4-2.3,20.7-4.5,30.9L161.7,379.5z"/>
<g>
	<g>
		<rect id="SVGID_1_" x="185.3" y="186.7" class="st1" width="309.7" height="289.3"/>
	</g>
	<g>
		<g>
			<defs>
				<rect id="SVGID_00000053544355053046344820000002648482811354848673_" x="185.3" y="186.7" width="309.7" height="289.3"/>
			</defs>
			<clipPath id="SVGID_00000167396159141279868720000016209986971077996174_">
				<use xlink:href="#SVGID_00000053544355053046344820000002648482811354848673_"  style="overflow:visible;"/>
			</clipPath>
			<g style="clip-path:url(#SVGID_00000167396159141279868720000016209986971077996174_);">
				<path class="st0" d="M483.2,475.5c-14-19.7-29.7-37.8-47.1-54.5c-33-31.6-70.4-67.4-125.4-73.7c-5.8-0.7-11.7-1-17.5-1
					c-23.4,0-43.8,5-58.8,8.6c-16.4,4-32.4,9.4-47.9,16.3c1.9-7.3,3.3-14.8,4.3-22.3c2.9-22.1,2-44.6-2.8-66.7
					c13.6-7.9,26.2-17.1,37.9-27.6c13.7-12.4,30.8-27.8,41.1-53.5c1.8-4.5,3.3-9.2,4.6-13.9c7.9,8.3,16.7,15.6,26.3,21.9
					c23,15.1,42.3,18.7,59.4,21.9c7,1.3,13.6,2.5,20.1,4.4C464.2,260.7,495,392.2,495,423.5c0,16-3.8,30.5-3.8,30.7
					C489.2,461.6,486.6,468.7,483.2,475.5z"/>
			</g>
		</g>
	</g>
</g>
<g>
	<g>
		<rect id="SVGID_00000116208963325600567660000013311106467027036841_" x="5" y="364" class="st1" width="457.7" height="136"/>
	</g>
	<g>
		<g>
			<defs>
				<rect id="SVGID_00000010279189793359178660000007329705369937153442_" x="5" y="364" width="457.7" height="136"/>
			</defs>
			<clipPath id="SVGID_00000145762647501338466540000008728405765979187089_">
				<use xlink:href="#SVGID_00000010279189793359178660000007329705369937153442_"  style="overflow:visible;"/>
			</clipPath>
			<g style="clip-path:url(#SVGID_00000145762647501338466540000008728405765979187089_);">
				<path class="st0" d="M170.3,500c-63.1,0-111.9-16.8-145.1-49.9C17.5,442.4,10.8,434,5,424.8c37.3-1.4,74.3-5.9,110.8-13.4
					c46.3-9.5,76.8-20.7,101.4-29.8c24.9-9.2,43-15.9,65.7-16.6c1.4,0,2.8-0.1,4.2-0.1c55.3,0,114,37.4,174.7,111.2
					c-28.4-8-57.3-12.1-86-12.4h-2.4c-41.8,0-66.1,8.4-91.8,17.2c-23.5,8.1-47.7,16.4-87.8,18.3C188,499.6,179.9,500,170.3,500z"/>
			</g>
		</g>
	</g>
</g>
</svg>
